<?xml version="1.0" encoding="UTF-8"?>
<!-- Generator: Adobe Illustrator 22.0.1, SVG Export Plug-In . SVG Version: 6.00 Build 0)  -->
<svg version="1.1" id="Layer_1" xmlns="http://www.w3.org/2000/svg" xmlns:xlink="http://www.w3.org/1999/xlink" x="0px" y="0px" viewBox="0 0 407.9 128.7" style="enable-background:new 0 0 407.9 128.7;" xml:space="preserve">
<style type="text/css">
	.st0{fill:#EB1B59;}
	.st1{fill:#606161;}
</style>
<g>
	<g>
		<path class="st0" d="M358.7,4.9c-22.6,1-40.7,19.5-41.4,42.1c-0.3,9.1,2.3,17.7,6.9,24.8l35.9,52.8c0.3,0.4,1,0.4,1.3,0l35.9-52.8    c4.5-6.7,6.9-14.8,6.9-23.5C404.2,23.6,383.7,3.8,358.7,4.9z M360.8,77.9c-16.4,0-29.7-13.3-29.7-29.7c0-16.4,13.3-29.7,29.7-29.7    c16.4,0,29.7,13.3,29.7,29.7C390.5,64.6,377.2,77.9,360.8,77.9z"/>
		<path class="st0" d="M367.4,25.5l-13.5,3.2c-0.3,0.1-0.6,0.4-0.6,0.7v37.8c0,0.4,0.2,0.7,0.6,0.7l13.5,3c0.5,0.1,0.9-0.3,0.9-0.7    v-44C368.3,25.8,367.8,25.4,367.4,25.5z"/>
	</g>
	<g>
		<path id="XMLID_132_" class="st1" d="M221.7,108.6c-4.4,0-8.2-0.3-11.3-0.8c-3.2-0.5-5.8-1.3-8-2.4c-2.2-1.1-3.9-2.4-5.2-4    c-1.3-1.6-2.3-3.6-3-5.8c-0.7-2.2-1.1-4.7-1.4-7.5c-0.2-2.8-0.3-5.8-0.3-9.2V22.1h14.9v56.8c0,3.2,0.1,5.8,0.3,7.7    c0.2,1.9,0.8,3.4,1.7,4.5c0.9,1.1,2.4,1.8,4.3,2.1c1.9,0.3,4.5,0.5,7.9,0.5V108.6z"/>
		<path id="XMLID_130_" class="st1" d="M286.7,107.7h-14.9V21.2h14.9V107.7z"/>
		<path class="st1" d="M124,108.6h-0.8c-3.7,0-7.9-1.5-11.2-3.3c-3.3-1.8-6.4-4.4-9.3-7.8c-3.8,7-10.6,10.5-20.3,10.5H27.8    c-10.7,0-17.9-4.4-21.5-13.2c-1.7-4-2.5-8.9-2.5-14.5l0-6h14.7l0,5.3c0,4.6,0.7,7.9,2.2,9.9c1.5,2,3.7,3,6.8,3h54.5    c2.4,0,4.3-0.2,5.8-0.7c1.4-0.5,2.4-1.1,2.9-1.8c0.5-0.8,0.8-1.7,0.8-2.9c0-0.1,0-0.3,0-0.4s-0.1-0.3-0.2-0.5    c-0.1-0.2-0.2-0.4-0.3-0.7c-0.1-0.3-0.3-0.5-0.4-0.8c-0.2-0.3-0.4-0.6-0.6-1c-0.2-0.3-0.5-0.7-0.7-1.2c-0.3-0.4-0.6-0.8-0.9-1.3    c-0.3-0.4-0.7-0.9-1.1-1.4c-0.4-0.5-0.8-1-1.3-1.5L70.6,60.7c-0.5-0.6-1-1.1-1.4-1.6c-0.4-0.5-0.8-1-1.2-1.5    c-0.4-0.5-0.7-0.9-1.1-1.3c-0.3-0.4-0.6-0.8-0.9-1.2c-1.3-1.8-1.9-3.9-1.7-6.4c0.2-2.9,1-5.4,2.4-7.4c1.4-2,3.3-3.5,5.8-4.4    L124,22.1v15.5L80.5,49.5l31.2,35.7c1.1,1.3,2.2,2.4,3.3,3.4c1,1,2,1.8,2.9,2.3c0.9,0.6,3.9,2,4.9,2.3c0.7,0.2,1.3,0.4,1.9,0.4    h1.2c2,0,1.7,0.3,2.3,1c1.1,1.4,1.7,3.2,1.7,5.3v0.6c0,2.1-0.6,3.9-1.7,5.3C126.9,107.3,126,108.6,124,108.6z"/>
		<path class="st1" d="M256.3,70.8h-14.5l0,13.1h0c0,0.2,0,0.5,0,0.7c0,2.1-0.3,3.8-1,5c-0.7,1.2-1.5,2.1-2.4,2.7    c-0.9,0.6-1.8,1-2.7,1.1c-0.9,0.1-1.6,0.2-2.1,0.2H220v14.9h13.3c2.8,0,5.5-0.5,8.2-1.4c2.7-1,5.2-2.4,7.4-4.4    c2.2-2,4-4.4,5.3-7.5c1.4-3,2-6.6,2-10.7c0-0.2,0-0.5,0-0.7L256.3,70.8z"/>
		<path class="st1" d="M183.8,80c-0.2-1.8-0.4-3.6-0.7-5.4c-0.3-1.9-0.6-3.7-1-5.5c-0.3-1.8-0.7-3.5-1-5c-0.2-0.9-0.5-1.7-0.6-2.4    c-0.1-0.7-0.5-2-0.5-2c-0.7-2.3-1.6-4.6-2.8-6.6c-1.2-2.2-2.7-4.1-4.6-5.7c-1.8-1.6-4-3-6.4-4c-2.5-1-5.3-1.6-8.5-1.7    c-3.6-0.2-6.9,0.4-9.9,1.6c-3,1.3-5.6,3-7.9,5.2c-2.2,2.2-3.9,4.8-5.2,7.8c-1.2,3-1.9,6.1-1.9,9.5c0,4.2,0.8,7.9,2.4,10.9    c1.6,3,3.8,5.5,6.8,7.3c3,1.8,6.6,3,10.8,3.6c4.2,0.6,11.2,0.3,16.5-0.4c-0.2,0.9-0.4,1.8-0.8,2.4c-0.7,1.2-1.5,2.1-2.4,2.7    c-0.9,0.6-1.8,1-2.7,1.1c-0.9,0.1-1.6,0.2-2.1,0.2H157c0,0-0.1,0-0.1,0c-2.5,0-5.1,0-8.5,0h-6.7H124v14.9h24.5c0,0,0,0,0,0H161    c2.8,0,5.5-0.5,8.2-1.4c2.7-1,5.2-2.4,7.4-4.4c2.2-2,4-4.4,5.3-7.5c1.4-3,2-6.6,2-10.7C184.1,83.3,184,81.8,183.8,80z M151.5,73.6    c-3.4-1.1-5.1-4.5-5.1-8c0-1.6,0.3-2.9,0.9-4.1c0.6-1.2,1.4-2.2,2.5-3c1-0.8,2.2-1.4,3.6-1.7c1.4-0.3,2.8-0.4,4.2-0.3    c2.3,0.2,4.1,1,5.4,2.1c1.2,1.1,1.8,1.8,2.4,3.3c0,0.1,0.6,1.8,0.6,1.9c0.2,0.7,0.7,3,1,4.3l0,0l1.2,6.2    C161.6,74.3,154.8,74.7,151.5,73.6z"/>
		<path class="st1" d="M143.3,35.9c-1.6-1.6-2.4-3.5-2.4-5.8c0-2.3,0.8-4.2,2.4-5.8c1.6-1.6,3.5-2.4,5.8-2.4c0.8,0,1.5,0.1,2.2,0.3    c0.7,0.2,1.3,0.5,2,0.8c0.6,0.4,1.2,0.8,1.7,1.3c0.8,0.8,1.4,1.6,1.8,2.6c0.4,1,0.6,2,0.6,3.1c0,0.3,0,0.5,0,0.7    c0,0.2,0,0.4-0.1,0.7c0,0.2-0.1,0.4-0.1,0.6c0,0.2-0.1,0.4-0.2,0.6c-0.1,0.2-0.1,0.4-0.2,0.6c-0.1,0.2-0.2,0.4-0.3,0.6    c-0.1,0.2-0.2,0.4-0.3,0.5c-0.1,0.2-0.2,0.3-0.3,0.5c-0.1,0.2-0.2,0.3-0.4,0.5c-0.2,0.2-0.3,0.3-0.5,0.5c-1.6,1.6-3.5,2.4-5.8,2.4    C146.8,38.3,144.9,37.5,143.3,35.9z"/>
		<path class="st1" d="M157.3,30.1c0-2.3,0.8-4.2,2.4-5.8c1.6-1.6,3.5-2.4,5.8-2.4c1.1,0,2.2,0.2,3.2,0.6c1,0.4,1.9,1,2.7,1.8    c0.8,0.8,1.4,1.7,1.8,2.6c0.4,1,0.6,2,0.6,3.1c0,1.2-0.2,2.2-0.6,3.2c-0.4,1-1,1.8-1.8,2.6c-0.5,0.5-1.1,1-1.7,1.3    c-0.6,0.4-1.2,0.6-1.9,0.8c-0.7,0.2-1.4,0.3-2.2,0.3c-1.1,0-2.2-0.2-3.2-0.6s-1.9-1-2.7-1.8c-0.8-0.8-1.4-1.7-1.8-2.6    S157.3,31.2,157.3,30.1z"/>
		<path class="st1" d="M232.9,52.3c-1.6-1.6-2.4-3.5-2.4-5.8c0-2.3,0.8-4.2,2.4-5.8c1.6-1.6,3.5-2.4,5.8-2.4c0.8,0,1.5,0.1,2.2,0.3    c0.7,0.2,1.3,0.5,2,0.8c0.6,0.4,1.2,0.8,1.7,1.3c0.8,0.8,1.4,1.6,1.8,2.6c0.4,1,0.6,2,0.6,3.1c0,0.3,0,0.5,0,0.7    c0,0.2,0,0.4-0.1,0.7c0,0.2-0.1,0.4-0.1,0.6c0,0.2-0.1,0.4-0.2,0.6c-0.1,0.2-0.1,0.4-0.2,0.6c-0.1,0.2-0.2,0.4-0.3,0.6    c-0.1,0.2-0.2,0.4-0.3,0.5c-0.1,0.2-0.2,0.3-0.3,0.5c-0.1,0.2-0.2,0.3-0.4,0.5c-0.2,0.2-0.3,0.3-0.5,0.5c-1.6,1.6-3.5,2.4-5.8,2.4    C236.4,54.7,234.4,53.9,232.9,52.3z"/>
		<path class="st1" d="M246.8,46.5c0-2.3,0.8-4.2,2.4-5.8c1.6-1.6,3.5-2.4,5.8-2.4c1.1,0,2.2,0.2,3.2,0.6c1,0.4,1.9,1,2.7,1.8    c0.8,0.8,1.4,1.7,1.8,2.6c0.4,1,0.6,2,0.6,3.1c0,1.2-0.2,2.2-0.6,3.2c-0.4,1-1,1.8-1.8,2.6c-0.5,0.5-1.1,1-1.7,1.3    c-0.6,0.4-1.2,0.6-1.9,0.8c-0.7,0.2-1.4,0.3-2.2,0.3c-1.1,0-2.2-0.2-3.2-0.6c-1-0.4-1.9-1-2.7-1.8c-0.8-0.8-1.4-1.7-1.8-2.6    S246.8,47.7,246.8,46.5z"/>
	</g>
</g>
</svg>